<svg xmlns="http://www.w3.org/2000/svg" version="1.1" xmlns:xlink="http://www.w3.org/1999/xlink" xmlns:svgjs="http://svgjs.dev/svgjs" width="1000" height="1000" viewBox="0 0 1000 1000"><rect width="1000" height="1000" fill="#000000"></rect><g transform="matrix(0.7,0,0,0.7,149.57576354241706,447.27331667799945)"><svg viewBox="0 0 396 60" data-background-color="#ffffff" preserveAspectRatio="xMidYMid meet" height="151" width="1000" xmlns="http://www.w3.org/2000/svg" xmlns:xlink="http://www.w3.org/1999/xlink"><g id="tight-bounds" transform="matrix(1,0,0,1,0.23999662457549675,-0.07000000643296289)"><svg viewBox="0 0 395.52 60.1400000128659" height="60.1400000128659" width="395.52"><g><svg viewBox="0 0 484.7998161129151 73.71526331732429" height="60.1400000128659" width="395.52"><g transform="matrix(1,0,0,1,89.27981611291513,20.375065879431254)"><svg viewBox="0 0 395.52 32.96513155846178" height="32.96513155846178" width="395.52"><g id="textblocktransform"><svg viewBox="0 0 395.52 32.96513155846178" height="32.96513155846178" width="395.52" id="textblock"><g><svg viewBox="0 0 395.52 32.96513155846178" height="32.96513155846178" width="395.52"><g transform="matrix(1,0,0,1,0,0)"><svg width="395.52" viewBox="0.5099999904632568 -38.66999816894531 467.239990234375 39.209999084472656" height="32.96513155846178" data-palette-color="#0080ff"><g class="undefined-text-0" data-fill-palette-color="primary" id="text-0"><path d="M0.51 0L18.43-38.16 26.64-38.16 45.09 0 36.96 0 33.91-6.42 11.62-6.42 8.67 0 0.51 0ZM14.58-12.79L30.86-12.79 22.61-30.13 14.58-12.79ZM49.58-16.21L49.58-38.16 57.32-38.16 57.32-17.14Q57.32-14.55 58.03-12.54 58.74-10.52 60.14-9.13 61.55-7.74 63.62-7.02 65.7-6.3 68.45-6.3L68.45-6.3Q71.19-6.3 73.28-7.02 75.36-7.74 76.77-9.13 78.17-10.52 78.88-12.54 79.59-14.55 79.59-17.14L79.59-17.14 79.59-38.16 87.33-38.16 87.33-16.21Q87.33-12.45 86.06-9.38 84.79-6.3 82.37-4.1 79.95-1.9 76.45-0.71 72.95 0.49 68.45 0.49L68.45 0.49Q63.96 0.49 60.46-0.71 56.96-1.9 54.54-4.1 52.12-6.3 50.85-9.38 49.58-12.45 49.58-16.21L49.58-16.21ZM108.25 0L108.25-31.37 94.16-31.37 94.16-38.16 130.07-38.16 130.07-31.37 115.99-31.37 115.99 0 108.25 0ZM136.08-19.19L136.08-19.19Q136.08-23.51 137.66-27.1 139.25-30.69 142.12-33.26 144.99-35.84 149-37.26 153.02-38.67 157.9-38.67L157.9-38.67Q162.76-38.67 166.79-37.26 170.82-35.84 173.69-33.26 176.56-30.69 178.14-27.1 179.73-23.51 179.73-19.19L179.73-19.19Q179.73-14.84 178.14-11.22 176.56-7.59 173.69-4.98 170.82-2.37 166.79-0.92 162.76 0.54 157.9 0.54L157.9 0.54Q153.02 0.54 149-0.92 144.99-2.37 142.12-4.98 139.25-7.59 137.66-11.22 136.08-14.84 136.08-19.19ZM143.82-19.19L143.82-19.19Q143.82-16.24 144.88-13.87 145.94-11.5 147.83-9.83 149.72-8.15 152.3-7.25 154.88-6.35 157.9-6.35L157.9-6.35Q160.93-6.35 163.51-7.25 166.08-8.15 167.96-9.83 169.84-11.5 170.92-13.87 171.99-16.24 171.99-19.19L171.99-19.19Q171.99-22.14 170.92-24.49 169.84-26.83 167.96-28.45 166.08-30.08 163.51-30.93 160.93-31.79 157.9-31.79L157.9-31.79Q154.88-31.79 152.3-30.93 149.72-30.08 147.83-28.45 145.94-26.83 144.88-24.49 143.82-22.14 143.82-19.19Z" fill="#ffffff" data-fill-palette-color="primary"></path><path d="M180.24 0L198.16-38.16 206.37-38.16 224.82 0 216.69 0 213.64-6.42 191.35-6.42 188.4 0 180.24 0ZM194.31-12.79L210.59-12.79 202.34-30.13 194.31-12.79ZM230.75 0L230.75-38.16 250.87-38.16Q255.26-38.16 258.49-37.21 261.71-36.25 263.83-34.46 265.96-32.67 267-30.08 268.03-27.49 268.03-24.24L268.03-24.24Q268.03-21.19 267.01-18.6 265.98-16.02 263.87-14.12 261.76-12.23 258.54-11.17 255.31-10.11 250.92-10.11L250.92-10.11 238.49-10.13 238.49 0 230.75 0ZM238.49-16.82L251.07-16.82Q253.26-16.82 254.91-17.35 256.56-17.87 257.67-18.84 258.78-19.8 259.33-21.18 259.88-22.56 259.88-24.24L259.88-24.24Q259.88-27.64 257.67-29.53 255.46-31.42 251.07-31.42L251.07-31.42 238.49-31.42 238.49-16.82ZM276.48 0L276.48-38.16 295.89-38.16Q300.28-38.16 303.5-37.24 306.73-36.33 308.85-34.59 310.98-32.86 312.01-30.37 313.05-27.88 313.05-24.73L313.05-24.73Q313.05-22.61 312.54-20.69 312.02-18.77 310.96-17.16 309.9-15.55 308.29-14.29 306.68-13.04 304.51-12.21L304.51-12.21 312.81 0 303.33 0 296.16-10.84 295.94-10.84 284.22-10.86 284.22 0 276.48 0ZM284.22-17.55L296.08-17.55Q298.28-17.55 299.93-18.07 301.58-18.58 302.69-19.51 303.8-20.43 304.35-21.77 304.9-23.1 304.9-24.73L304.9-24.73Q304.9-27.93 302.7-29.68 300.5-31.42 296.08-31.42L296.08-31.42 284.22-31.42 284.22-17.55ZM322.2 0L322.2-38.16 354.7-38.16 354.7-31.37 329.94-31.37 329.94-23.75 351.87-23.75 351.87-17.38 329.94-17.38 329.94-6.76 355.21-6.76 355.21 0 322.2 0ZM361.48-19.31L361.48-19.31Q361.48-23.39 363.02-26.92 364.56-30.44 367.48-33.04 370.39-35.64 374.61-37.13 378.82-38.62 384.14-38.62L384.14-38.62Q388.8-38.62 392.7-37.68 396.59-36.74 399.93-34.81L399.93-34.81 396.37-28.96Q395.37-29.61 394.06-30.13 392.76-30.64 391.28-30.99 389.8-31.35 388.23-31.54 386.65-31.74 385.12-31.74L385.12-31.74Q381.4-31.74 378.5-30.82 375.59-29.91 373.6-28.26 371.61-26.61 370.58-24.33 369.54-22.05 369.54-19.31L369.54-19.31Q369.54-16.48 370.61-14.11 371.69-11.74 373.73-10.02 375.76-8.3 378.71-7.34 381.65-6.37 385.36-6.37L385.36-6.37Q387.04-6.37 388.7-6.62 390.36-6.86 391.91-7.29 393.47-7.71 394.91-8.31 396.35-8.91 397.59-9.62L397.59-9.62 401.16-3.76Q398.03-1.76 393.93-0.62 389.83 0.51 385.21 0.51L385.21 0.51Q379.33 0.51 374.89-1.01 370.44-2.54 367.46-5.21 364.49-7.89 362.98-11.51 361.48-15.14 361.48-19.31ZM408.7 0L408.7-38.16 416.49-38.16 416.49 0 408.7 0ZM424.1-19.19L424.1-19.19Q424.1-23.51 425.69-27.1 427.27-30.69 430.14-33.26 433.01-35.84 437.03-37.26 441.04-38.67 445.93-38.67L445.93-38.67Q450.78-38.67 454.81-37.26 458.84-35.84 461.71-33.26 464.58-30.69 466.17-27.1 467.75-23.51 467.75-19.19L467.75-19.19Q467.75-14.84 466.17-11.22 464.58-7.59 461.71-4.98 458.84-2.37 454.81-0.92 450.78 0.54 445.93 0.54L445.93 0.54Q441.04 0.54 437.03-0.92 433.01-2.37 430.14-4.98 427.27-7.59 425.69-11.22 424.1-14.84 424.1-19.19ZM431.84-19.19L431.84-19.19Q431.84-16.24 432.9-13.87 433.96-11.5 435.86-9.83 437.75-8.15 440.32-7.25 442.9-6.35 445.93-6.35L445.93-6.35Q448.95-6.35 451.53-7.25 454.1-8.15 455.98-9.83 457.86-11.5 458.94-13.87 460.01-16.24 460.01-19.19L460.01-19.19Q460.01-22.14 458.94-24.49 457.86-26.83 455.98-28.45 454.1-30.08 451.53-30.93 448.95-31.79 445.93-31.79L445.93-31.79Q442.9-31.79 440.32-30.93 437.75-30.08 435.86-28.45 433.96-26.83 432.9-24.49 431.84-22.14 431.84-19.19Z" fill="#ffffff" data-fill-palette-color="primary"></path></g></svg></g></svg></g></svg></g></svg></g><g><svg viewBox="0 0 73.71526331732429 73.71526331732429" height="73.71526331732429" width="73.71526331732429"><g><svg></svg></g><g id="icon-0"><svg viewBox="0 0 73.71526331732429 73.71526331732429" height="73.71526331732429" width="73.71526331732429"><g><path d="M0 36.858c0-20.356 16.502-36.858 36.858-36.858 20.356 0 36.858 16.502 36.857 36.858 0 20.356-16.502 36.858-36.857 36.857-20.356 0-36.858-16.502-36.858-36.857zM36.858 70.742c18.714 0 33.885-15.171 33.884-33.884 0-18.714-15.171-33.885-33.884-33.885-18.714 0-33.885 15.171-33.885 33.885 0 18.714 15.171 33.885 33.885 33.884z" data-fill-palette-color="accent" fill="#ffffff" stroke="transparent"></path></g><g transform="matrix(1,0,0,1,19.687195851532923,21.539411942007256)"><svg viewBox="0 0 34.34087161425844 30.63643943330978" height="30.63643943330978" width="34.34087161425844"><g><svg xmlns="http://www.w3.org/2000/svg" xmlns:xlink="http://www.w3.org/1999/xlink" version="1.1" x="0" y="0" viewBox="8.386999130249023 13.005000114440918 84.19200134277344 75.1100082397461" enable-background="new 0 0 100 100" xml:space="preserve" height="30.63643943330978" width="34.34087161425844" class="icon-s-0" data-fill-palette-color="accent" id="s-0"><g fill="#0080ff" data-fill-palette-color="accent"><path d="M49.569 22.967c-9.975-5.691-20.677-9.125-31.045-9.962v58.351c10.367 0.814 21.05 4.154 31.045 9.699V22.967z" fill="#ffffff" data-fill-palette-color="accent"></path><path d="M49.229 84.073c0.814 0.278 1.671 0.29 2.485 0.012 11.657-5.043 23.865-7.313 35.798-6.79V19.524c-1.074-0.048-2.155-0.059-3.24-0.055v53.594l-0.852 0.056c-10.672 0.697-21.732 4.177-32.021 10.048-0.594 0.203-1.237 0.203-1.83 0-10.29-5.871-21.349-9.351-32.021-10.048l-0.854-0.056V19.469c-1.084-0.004-2.166 0.006-3.239 0.055v57.771C25.387 76.771 37.569 79.03 49.229 84.073z" fill="#ffffff" data-fill-palette-color="accent"></path><path d="M92.579 26.009c-1.07-0.149-2.157-0.228-3.237-0.335v53.55l-0.968-0.056c-12.195-0.699-25.06 1.777-36.975 7.065l-0.916 0.381-0.915-0.381c-11.917-5.288-24.781-7.765-36.976-7.065l-0.967 0.056v-53.55c-1.081 0.108-2.168 0.187-3.238 0.335v58.707c0.594 0.307 1.044 0.748 1.044 0.748 12.951-1.75 26.393-1.536 39.18 2.651 0.588-0.058 1.212-0.095 1.873-0.095 0.661 0 1.285 0.037 1.872 0.095 12.785-4.188 26.229-4.401 39.179-2.651 0 0 0.474-0.462 1.044-0.748V26.009z" fill="#ffffff" data-fill-palette-color="accent"></path><path d="M65.283 16.667v20.625l-3.98-4.738-4.195 4.738V19.994c-1.924 0.91-3.829 1.901-5.708 2.974v58.087c9.993-5.545 20.679-8.885 31.045-9.699V13.005C76.766 13.464 70.987 14.706 65.283 16.667z" fill="#ffffff" data-fill-palette-color="accent"></path></g></svg></g></svg></g></svg></g></svg></g></svg></g><defs></defs></svg><rect width="395.52" height="60.1400000128659" fill="none" stroke="none" visibility="hidden"></rect></g></svg></g></svg>