<?xml version="1.0" encoding="UTF-8"?>
<svg version="1.1" viewBox="0 0 1000 151" xmlns="http://www.w3.org/2000/svg">
<g transform="translate(-.60605 .17617)">
<svg width="1e3" height="151" data-background-color="#ffffff" viewBox="0 0 396 60" xmlns="http://www.w3.org/2000/svg" xmlns:xlink="http://www.w3.org/1999/xlink">
<g transform="translate(.24 -.07)">
<svg width="395.52" height="60.14" viewBox="0 0 395.52 60.1400000128659">
<svg width="395.52" height="60.14" viewBox="0 0 484.7998161129151 73.71526331732429">
<g transform="translate(89.28 20.375)">
<svg width="395.52" height="32.965" viewBox="0 0 395.52 32.96513155846178">
<svg width="395.52" height="32.965" viewBox="0 0 395.52 32.96513155846178">
<svg width="395.52" height="32.965" viewBox="0 0 395.52 32.96513155846178">
<g>
<svg width="395.52" height="32.965" data-palette-color="#0080ff" viewBox="0.5099999904632568 -38.66999816894531 467.239990234375 39.209999084472656">
<g class="undefined-text-0" fill="#0080ff" data-fill-palette-color="primary">
<path d="m0.51 0 17.92-38.16h8.21l18.45 38.16h-8.13l-3.05-6.42h-22.29l-2.95 6.42h-8.16zm14.07-12.79h16.28l-8.25-17.34-8.03 17.34zm35-3.42v-21.95h7.74v21.02q0 2.59 0.71 4.6 0.71 2.02 2.11 3.41 1.41 1.39 3.48 2.11 2.08 0.72 4.83 0.72 2.74 0 4.83-0.72 2.08-0.72 3.49-2.11 1.4-1.39 2.11-3.41 0.71-2.01 0.71-4.6v-21.02h7.74v21.95q0 3.76-1.27 6.83-1.27 3.08-3.69 5.28t-5.92 3.39q-3.5 1.2-8 1.2-4.49 0-7.99-1.2-3.5-1.19-5.92-3.39t-3.69-5.28q-1.27-3.07-1.27-6.83zm58.67 16.21v-31.37h-14.09v-6.79h35.91v6.79h-14.08v31.37h-7.74zm27.83-19.19q0-4.32 1.58-7.91 1.59-3.59 4.46-6.16 2.87-2.58 6.88-4 4.02-1.41 8.9-1.41 4.86 0 8.89 1.41 4.03 1.42 6.9 4 2.87 2.57 4.45 6.16 1.59 3.59 1.59 7.91 0 4.35-1.59 7.97-1.58 3.63-4.45 6.24t-6.9 4.06q-4.03 1.46-8.89 1.46-4.88 0-8.9-1.46-4.01-1.45-6.88-4.06t-4.46-6.24q-1.58-3.62-1.58-7.97zm7.74 0q0 2.95 1.06 5.32t2.95 4.04q1.89 1.68 4.47 2.58t5.6 0.9q3.03 0 5.61-0.9 2.57-0.9 4.45-2.58 1.88-1.67 2.96-4.04 1.07-2.37 1.07-5.32t-1.07-5.3q-1.08-2.34-2.96-3.96-1.88-1.63-4.45-2.48-2.58-0.86-5.61-0.86-3.02 0-5.6 0.86-2.58 0.85-4.47 2.48-1.89 1.62-2.95 3.96-1.06 2.35-1.06 5.3z" data-fill-palette-color="primary"/>
<path d="m180.24 0 17.92-38.16h8.21l18.45 38.16h-8.13l-3.05-6.42h-22.29l-2.95 6.42h-8.16zm14.07-12.79h16.28l-8.25-17.34-8.03 17.34zm36.44 12.79v-38.16h20.12q4.39 0 7.62 0.95 3.22 0.96 5.34 2.75 2.13 1.79 3.17 4.38 1.03 2.59 1.03 5.84 0 3.05-1.02 5.64-1.03 2.58-3.14 4.48-2.11 1.89-5.33 2.95-3.23 1.06-7.62 1.06l-12.43-0.02v10.13h-7.74zm7.74-16.82h12.58q2.19 0 3.84-0.53 1.65-0.52 2.76-1.49 1.11-0.96 1.66-2.34t0.55-3.06q0-3.4-2.21-5.29t-6.6-1.89h-12.58v14.6zm37.99 16.82v-38.16h19.41q4.39 0 7.61 0.92 3.23 0.91 5.35 2.65 2.13 1.73 3.16 4.22 1.04 2.49 1.04 5.64 0 2.12-0.51 4.04-0.52 1.92-1.58 3.53t-2.67 2.87q-1.61 1.25-3.78 2.08l8.3 12.21h-9.48l-7.17-10.84h-0.22l-11.72-0.02v10.86h-7.74zm7.74-17.55h11.86q2.2 0 3.85-0.52 1.65-0.51 2.76-1.44 1.11-0.92 1.66-2.26 0.55-1.33 0.55-2.96 0-3.2-2.2-4.95-2.2-1.74-6.62-1.74h-11.86v13.87zm37.98 17.55v-38.16h32.5v6.79h-24.76v7.62h21.93v6.37h-21.93v10.62h25.27v6.76h-33.01zm39.28-19.31q0-4.08 1.54-7.61 1.54-3.52 4.46-6.12 2.91-2.6 7.13-4.09 4.21-1.49 9.53-1.49 4.66 0 8.56 0.94 3.89 0.94 7.23 2.87l-3.56 5.85q-1-0.65-2.31-1.17-1.3-0.51-2.78-0.86-1.48-0.36-3.05-0.55-1.58-0.2-3.11-0.2-3.72 0-6.62 0.92-2.91 0.91-4.9 2.56t-3.02 3.93q-1.04 2.28-1.04 5.02 0 2.83 1.07 5.2 1.08 2.37 3.12 4.09 2.03 1.72 4.98 2.68 2.94 0.97 6.65 0.97 1.68 0 3.34-0.25 1.66-0.24 3.21-0.67 1.56-0.42 3-1.02t2.68-1.31l3.57 5.86q-3.13 2-7.23 3.14-4.1 1.13-8.72 1.13-5.88 0-10.32-1.52-4.45-1.53-7.43-4.2-2.97-2.68-4.48-6.3-1.5-3.63-1.5-7.8zm47.22 19.31v-38.16h7.79v38.16h-7.79zm15.4-19.19q0-4.32 1.59-7.91 1.58-3.59 4.45-6.16 2.87-2.58 6.89-4 4.01-1.41 8.9-1.41 4.85 0 8.88 1.41 4.03 1.42 6.9 4 2.87 2.57 4.46 6.16 1.58 3.59 1.58 7.91 0 4.35-1.58 7.97-1.59 3.63-4.46 6.24t-6.9 4.06q-4.03 1.46-8.88 1.46-4.89 0-8.9-1.46-4.02-1.45-6.89-4.06t-4.45-6.24q-1.59-3.62-1.59-7.97zm7.74 0q0 2.95 1.06 5.32t2.96 4.04q1.89 1.68 4.46 2.58 2.58 0.9 5.61 0.9 3.02 0 5.6-0.9 2.57-0.9 4.45-2.58 1.88-1.67 2.96-4.04 1.07-2.37 1.07-5.32t-1.07-5.3q-1.08-2.34-2.96-3.96-1.88-1.63-4.45-2.48-2.58-0.86-5.6-0.86-3.03 0-5.61 0.86-2.57 0.85-4.46 2.48-1.9 1.62-2.96 3.96-1.06 2.35-1.06 5.3z" data-fill-palette-color="primary"/>
</g>
</svg>
</g>
</svg>
</svg>
</svg>
</g>
<svg width="73.715" height="73.715" viewBox="0 0 73.71526331732429 73.71526331732429">
<svg/>
<svg width="73.715" height="73.715" viewBox="0 0 73.71526331732429 73.71526331732429">
<path d="m0 36.858c0-20.356 16.502-36.858 36.858-36.858s36.858 16.502 36.857 36.858c0 20.356-16.502 36.858-36.857 36.857-20.356 0-36.858-16.502-36.858-36.857zm36.858 33.884c18.714 0 33.885-15.171 33.884-33.884 0-18.714-15.171-33.885-33.884-33.885-18.714 0-33.885 15.171-33.885 33.885s15.171 33.885 33.885 33.884z" fill="#0080ff" stroke="transparent" data-fill-palette-color="accent"/>
<g transform="translate(19.687 21.539)">
<svg width="34.341" height="30.636" viewBox="0 0 34.34087161425844 30.63643943330978">
<svg class="icon-s-0" width="34.341" height="30.636" enable-background="new 0 0 100 100" data-fill-palette-color="accent" version="1.1" viewBox="8.386999130249023 13.005000114440918 84.19200134277344 75.1100082397461" xml:space="preserve" xmlns="http://www.w3.org/2000/svg" xmlns:xlink="http://www.w3.org/1999/xlink"><g fill="#0080ff" data-fill-palette-color="accent"><path d="M49.569 22.967c-9.975-5.691-20.677-9.125-31.045-9.962v58.351c10.367 0.814 21.05 4.154 31.045 9.699V22.967z" data-fill-palette-color="accent"/><path d="m49.229 84.073c0.814 0.278 1.671 0.29 2.485 0.012 11.657-5.043 23.865-7.313 35.798-6.79v-57.771c-1.074-0.048-2.155-0.059-3.24-0.055v53.594l-0.852 0.056c-10.672 0.697-21.732 4.177-32.021 10.048-0.594 0.203-1.237 0.203-1.83 0-10.29-5.871-21.349-9.351-32.021-10.048l-0.854-0.056v-53.594c-1.084-4e-3 -2.166 6e-3 -3.239 0.055v57.771c11.932-0.524 24.114 1.735 35.774 6.778z" data-fill-palette-color="accent"/><path d="m92.579 26.009c-1.07-0.149-2.157-0.228-3.237-0.335v53.55l-0.968-0.056c-12.195-0.699-25.06 1.777-36.975 7.065l-0.916 0.381-0.915-0.381c-11.917-5.288-24.781-7.765-36.976-7.065l-0.967 0.056v-53.55c-1.081 0.108-2.168 0.187-3.238 0.335v58.707c0.594 0.307 1.044 0.748 1.044 0.748 12.951-1.75 26.393-1.536 39.18 2.651 0.588-0.058 1.212-0.095 1.873-0.095s1.285 0.037 1.872 0.095c12.785-4.188 26.229-4.401 39.179-2.651 0 0 0.474-0.462 1.044-0.748v-58.707z" data-fill-palette-color="accent"/><path d="m65.283 16.667v20.625l-3.98-4.738-4.195 4.738v-17.298c-1.924 0.91-3.829 1.901-5.708 2.974v58.087c9.993-5.545 20.679-8.885 31.045-9.699v-58.351c-5.679 0.459-11.458 1.701-17.162 3.662z" data-fill-palette-color="accent"/></g></svg>
</svg>
</g>
</svg>
</svg>
</svg>
</svg>
<rect width="395.52" height="60.14" fill="none" visibility="hidden"/>
</g>
</svg>
</g>
</svg>
