<?xml version="1.0" standalone="no"?>
<svg viewBox="0 0 200 200" xmlns="http://www.w3.org/2000/svg">
  <path d="M44.3,-69.5C57.4,-69.2,68,-57.3,74.2,-43.8C80.4,-30.3,82.1,-15.1,78.8,-1.9C75.5,11.3,67.1,22.6,56.9,29.2C46.8,35.9,34.9,37.8,25.1,46.8C15.3,55.8,7.7,71.8,-1.2,73.8C-10,75.9,-20,64,-27.6,53.7C-35.2,43.4,-40.3,34.8,-49.2,26.2C-58,17.5,-70.6,8.7,-77.4,-3.9C-84.2,-16.6,-85.2,-33.2,-74.9,-39.3C-64.5,-45.3,-42.8,-40.9,-28.4,-40.5C-14,-40,-7,-43.7,4.3,-51.1C15.6,-58.6,31.2,-69.9,44.3,-69.5Z" transform="translate(100 100)" />
</svg>
