<?xml version="1.0" encoding="utf-8"?>
<svg viewBox="230.243 67.344 17.554 20" xmlns="http://www.w3.org/2000/svg">
  <defs>
    <linearGradient gradientUnits="userSpaceOnUse" x1="239.02" y1="67.344" x2="239.02" y2="87.344" id="gradient-2" gradientTransform="matrix(0.539981, 0.841678, -0.685936, 0.440063, 162.381613, -156.377245)">
      <stop offset="0" style="stop-color: rgb(253, 213, 97);"/>
      <stop offset="1" style="stop-color: rgb(248, 175, 43);"/>
    </linearGradient>
  </defs>
  <path d="M 239.362 69.943 L 239.362 68.651 C 239.362 67.435 238.602 66.979 237.538 67.663 L 236.93 67.967 L 233.283 70.474 L 232.827 70.778 C 231.763 71.538 231.763 72.526 232.827 73.058 L 233.207 73.438 C 234.194 74.198 235.867 75.262 236.854 75.87 L 237.386 76.174 C 238.298 76.934 239.134 76.402 239.134 75.262 L 239.134 73.59 C 241.997 73.566 244.325 75.893 244.301 78.757 C 244.301 81.645 242.021 83.849 239.134 83.849 C 236.094 83.849 233.814 81.569 233.814 78.681 C 233.814 77.769 233.054 77.01 232.067 77.01 C 231.003 77.01 230.243 77.77 230.243 78.681 C 230.243 83.469 234.194 87.344 239.058 87.344 C 243.845 87.344 247.796 83.544 247.796 78.681 C 247.872 73.97 243.921 70.171 239.134 70.171 L 239.362 69.943 L 239.362 69.943 Z" style="fill: url(#gradient-2);"/>
</svg>